<svg width="414" height="112" viewBox="0 0 414 112" fill="none" xmlns="http://www.w3.org/2000/svg">
<g clip-path="url(#clip0)">
<path d="M348.501 33.5873C318.237 40.2137 286.199 37.5732 254.857 36.4632C223.516 35.3532 190.484 36.1437 163.264 48.5891C143.081 57.8055 127.357 72.925 105.674 79.6523C89.6971 84.5969 72.0504 84.4623 54.9109 84.8828C37.7715 85.3032 19.8712 86.531 5.28894 93.7123C-9.31447 100.894 -19.3107 115.744 -13.1397 128.476C-4.93979 145.411 23.2526 148.086 46.0559 148.001C151.703 147.615 257.372 147.228 363.02 146.841C395.206 146.723 430.732 145.58 454.106 127.971C477.776 110.127 480.819 79.9719 470.125 55.451C463.405 40.0455 441.806 1.80095 417.819 0.0518568C402.815 -1.04133 396.496 10.8323 386.542 17.6605C375.615 25.1614 362.343 30.56 348.501 33.5873Z" fill="#BAA8F2"/>
</g>
<defs>
<clipPath id="clip0">
<rect width="491" height="148" fill="white" transform="translate(-15)"/>
</clipPath>
</defs>
</svg>
