<svg width="414" height="112" viewBox="0 0 414 112" fill="none" xmlns="http://www.w3.org/2000/svg">
<g clip-path="url(#clip0)">
<path d="M338.136 32.679C308.736 39.1263 277.611 36.5572 247.163 35.4772C216.715 34.3972 184.625 35.1663 158.181 47.2754C138.574 56.2427 123.298 70.9536 102.233 77.4991C86.7119 82.31 69.5684 82.1791 52.9177 82.5882C36.2669 82.9972 18.877 84.1918 4.71054 91.1791C-9.47648 98.1663 -19.1877 112.615 -13.1926 125.003C-5.22653 141.481 22.162 144.083 44.3151 144.001C146.95 143.625 249.606 143.248 352.241 142.872C383.51 142.757 418.023 141.645 440.73 124.512C463.725 107.15 466.682 77.81 456.293 53.9518C449.764 38.9627 428.781 1.75177 405.478 0.0499505C390.901 -1.01369 384.763 10.539 375.092 17.1827C364.478 24.4809 351.584 29.7336 338.136 32.679Z" fill="#1B77BA" fill-opacity="0.15"/>
</g>
<defs>
<clipPath id="clip0">
<rect width="477" height="144" fill="white" transform="translate(-15)"/>
</clipPath>
</defs>
</svg>
