<svg width="218" height="70" viewBox="0 0 218 70" fill="none" xmlns="http://www.w3.org/2000/svg">
<g clip-path="url(#clip0)">
<path d="M112.044 24.4663C112.314 24.736 112.529 25.0328 112.664 25.3565C112.799 25.7071 112.852 26.0578 112.852 26.4085C112.852 26.7591 112.799 27.1098 112.664 27.4605C112.529 27.8112 112.341 28.1079 112.044 28.3776C111.775 28.6474 111.452 28.8632 111.101 28.9981C110.751 29.1329 110.401 29.2139 110.024 29.2139C109.674 29.2139 109.296 29.1599 108.946 29.025C108.596 28.8902 108.3 28.7013 108.03 28.4316C107.168 27.5684 106.225 26.948 105.201 26.5433C104.178 26.1387 103.1 25.9229 101.969 25.9229C100.837 25.9229 99.7595 26.1387 98.7358 26.5703C97.7121 27.0019 96.8231 27.5954 96.0418 28.3776C95.2605 29.1329 94.6409 30.0501 94.2099 31.0751C93.7788 32.1002 93.5364 33.2331 93.5364 34.42C93.5364 35.553 93.7519 36.632 94.156 37.657C94.587 38.6821 95.1528 39.5992 95.9071 40.3545C96.6614 41.1368 97.5504 41.7572 98.5472 42.2158C99.571 42.6744 100.676 42.9171 101.861 42.9441C102.992 42.9711 104.07 42.7553 105.067 42.3776C106.064 41.973 107.033 41.3256 107.949 40.4624C108.219 40.1927 108.515 40.0038 108.865 39.8959C109.216 39.7611 109.566 39.7071 109.943 39.7071C110.293 39.7071 110.67 39.7611 111.021 39.8959C111.371 40.0308 111.667 40.1927 111.936 40.4624C112.206 40.7322 112.421 41.0559 112.556 41.4065C112.691 41.7572 112.772 42.1079 112.772 42.4855C112.772 42.8362 112.718 43.2139 112.583 43.5645C112.448 43.9152 112.26 44.2119 111.99 44.4817C110.563 45.8844 109 46.9364 107.249 47.6378C105.525 48.3391 103.72 48.6898 101.861 48.6898C99.9481 48.6898 98.1431 48.3121 96.4459 47.5838C94.7487 46.8555 93.267 45.8304 92.0008 44.5356C90.7346 43.2408 89.7378 41.7572 88.9835 40.0308C88.2561 38.3044 87.8789 36.4701 87.8789 34.5279C87.8789 33.2871 88.0406 32.0732 88.3639 30.8863C88.6871 29.6994 89.1451 28.5665 89.7109 27.5414C90.3035 26.4894 91.004 25.5183 91.8661 24.6551C92.7012 23.7649 93.6441 23.0096 94.6948 22.3622C95.7455 21.7148 96.8769 21.2293 98.1162 20.8786C99.3554 20.5279 100.649 20.3391 101.996 20.3391C103.828 20.3391 105.606 20.6898 107.33 21.3642C109.054 21.9846 110.643 23.0366 112.044 24.4663Z" fill="white"/>
<path d="M132.465 43.5376H120.961L119.695 46.6397C119.534 47.0174 119.318 47.3411 119.049 47.5838C118.779 47.8266 118.456 48.0154 118.133 48.1503C117.782 48.2852 117.432 48.3391 117.028 48.3122C116.624 48.3122 116.247 48.2312 115.897 48.0694C115.52 47.9075 115.196 47.6917 114.954 47.422C114.711 47.1522 114.523 46.8555 114.415 46.5318C114.307 46.2081 114.253 45.8574 114.28 45.4798C114.307 45.1021 114.388 44.7245 114.55 44.3468L124.086 22.1734C124.329 21.6339 124.679 21.2023 125.11 20.9056C125.541 20.6089 126.08 20.447 126.673 20.447C127.212 20.447 127.723 20.6089 128.181 20.9056C128.639 21.2023 128.99 21.6339 129.205 22.1464L138.823 44.3199C138.984 44.6705 139.065 45.0482 139.092 45.4258C139.119 45.8035 139.065 46.1542 138.984 46.4779C138.877 46.8016 138.715 47.1253 138.473 47.395C138.23 47.6648 137.934 47.8806 137.584 48.0424C137.233 48.2043 136.856 48.2852 136.479 48.2852C136.102 48.2852 135.752 48.2312 135.401 48.0964C135.051 47.9615 134.755 47.7727 134.458 47.5299C134.189 47.2871 133.947 46.9634 133.785 46.6127L132.465 43.5376ZM123.224 37.8728H130.148L126.7 29.5106L123.224 37.8728Z" fill="white"/>
<path d="M141.544 23.3063C141.544 22.9017 141.625 22.551 141.759 22.2004C141.894 21.8497 142.11 21.553 142.379 21.3102C142.648 21.0404 142.945 20.8516 143.268 20.6898C143.618 20.5549 143.968 20.474 144.373 20.474H152.32C153.775 20.474 155.149 20.7437 156.442 21.2562C157.735 21.7688 158.839 22.4971 159.809 23.4412C160.779 24.3584 161.533 25.4643 162.072 26.7052C162.638 27.973 162.907 29.3218 162.907 30.7784C162.907 31.7495 162.8 32.6397 162.557 33.5298C162.315 34.393 161.964 35.2023 161.533 35.9576C161.075 36.7129 160.537 37.3873 159.917 38.0077C159.297 38.6281 158.597 39.1676 157.843 39.5992L161.21 43.4836C161.48 43.7534 161.695 44.0771 161.83 44.4277C161.965 44.7784 162.045 45.1291 162.045 45.5067C162.045 45.8574 161.965 46.2351 161.83 46.5588C161.695 46.9094 161.48 47.2062 161.21 47.4759C160.671 48.0154 160.025 48.3121 159.351 48.3121C158.651 48.3391 158.031 48.0694 157.492 47.5029L151.727 41.0289H147.201V45.5067C147.201 45.9114 147.12 46.262 146.986 46.6127C146.851 46.9634 146.636 47.2601 146.366 47.5029C146.097 47.7457 145.8 47.9345 145.477 48.0963C145.127 48.2312 144.777 48.3121 144.373 48.3121C143.968 48.3121 143.618 48.2312 143.268 48.0963C142.918 47.9615 142.621 47.7457 142.379 47.5029C142.11 47.2601 141.921 46.9634 141.759 46.6127C141.625 46.262 141.544 45.9114 141.544 45.5067V23.3063ZM147.201 26.1387V35.4181H152.428C153.074 35.4181 153.694 35.3102 154.287 35.0674C154.879 34.8246 155.391 34.5009 155.822 34.0693C156.253 33.6377 156.603 33.1522 156.873 32.6127C157.142 32.0462 157.277 31.4528 157.277 30.8054C157.277 30.158 157.142 29.5376 156.873 28.9711C156.603 28.4046 156.253 27.9191 155.795 27.4875C155.337 27.0559 154.825 26.7322 154.26 26.4894C153.667 26.2466 153.047 26.1387 152.428 26.1387H147.201Z" fill="white"/>
<path d="M168.861 48.3391C168.134 48.2582 167.514 47.9884 167.002 47.4759C166.49 46.9634 166.248 46.3429 166.248 45.5607V23.3063C166.248 22.9017 166.329 22.551 166.464 22.2004C166.598 21.8497 166.814 21.553 167.056 21.3102C167.299 21.0404 167.622 20.8516 167.945 20.6898C168.295 20.5549 168.673 20.474 169.05 20.474H183.678C184.082 20.474 184.433 20.5549 184.783 20.6898C185.133 20.8246 185.429 21.0404 185.672 21.3102C185.914 21.5799 186.103 21.8767 186.265 22.2004C186.399 22.551 186.48 22.9017 186.48 23.3063C186.48 23.711 186.399 24.0616 186.265 24.4123C186.13 24.763 185.914 25.0597 185.672 25.3025C185.429 25.5722 185.133 25.7611 184.783 25.9229C184.433 26.0578 184.082 26.1387 183.678 26.1387H171.878V31.183H181.281C181.685 31.156 182.035 31.237 182.385 31.3988C182.735 31.5607 183.032 31.7495 183.274 32.0192C183.517 32.289 183.732 32.5857 183.894 32.9364C184.028 33.2871 184.109 33.6647 184.109 34.0693C184.109 34.474 184.028 34.8246 183.894 35.1483C183.759 35.472 183.544 35.7688 183.274 36.0385C183.005 36.2813 182.708 36.4971 182.385 36.632C182.035 36.7668 181.685 36.8478 181.281 36.8478H171.878V42.7013H183.678C184.082 42.7013 184.433 42.7823 184.783 42.9171C185.133 43.079 185.429 43.2678 185.672 43.5375C185.914 43.8073 186.103 44.104 186.265 44.4547C186.399 44.8054 186.48 45.183 186.48 45.5607C186.48 45.9653 186.399 46.316 186.265 46.6666C186.13 47.0173 185.914 47.314 185.672 47.5568C185.429 47.7996 185.133 48.0154 184.783 48.1503C184.433 48.2851 184.082 48.3661 183.678 48.3391H168.861Z" fill="white"/>
<path d="M189.821 23.0906C189.821 22.659 189.901 22.2813 190.063 21.9037C190.225 21.526 190.44 21.2023 190.71 20.9326C190.979 20.6628 191.302 20.447 191.68 20.2852C192.03 20.1233 192.434 20.0424 192.865 20.0424C193.269 20.0424 193.646 20.1233 194.023 20.2852C194.4 20.447 194.724 20.6628 194.993 20.9326C195.263 21.2023 195.505 21.526 195.667 21.9037C195.828 22.2813 195.909 22.659 195.909 23.0906C195.909 23.5222 195.828 23.8998 195.667 24.2775C195.505 24.6281 195.289 24.9518 194.993 25.2486C194.724 25.5183 194.374 25.7341 194.023 25.896C193.646 26.0578 193.269 26.1387 192.865 26.1387C192.434 26.1387 192.057 26.0578 191.68 25.896C191.329 25.7341 191.006 25.5183 190.71 25.2486C190.44 24.9788 190.225 24.6551 190.063 24.2775C189.901 23.9268 189.821 23.5222 189.821 23.0906ZM195.694 45.5337C195.694 45.9383 195.613 46.289 195.478 46.6397C195.343 46.9904 195.128 47.2871 194.885 47.5299C194.643 47.7726 194.347 47.9884 193.996 48.1233C193.646 48.2582 193.296 48.3391 192.892 48.3391C192.488 48.3391 192.138 48.2582 191.787 48.1233C191.437 47.9884 191.141 47.7726 190.898 47.5299C190.629 47.2871 190.44 46.9904 190.279 46.6397C190.117 46.289 190.063 45.9383 190.063 45.5337V30.9133C190.063 30.5087 190.144 30.158 190.279 29.8073C190.44 29.4566 190.629 29.1599 190.898 28.9171C191.168 28.6744 191.464 28.4586 191.814 28.3237C192.164 28.1888 192.542 28.1079 192.946 28.1079C193.35 28.1079 193.7 28.1888 194.023 28.3237C194.347 28.4586 194.643 28.6744 194.912 28.9171C195.155 29.1599 195.37 29.4566 195.505 29.8073C195.64 30.158 195.721 30.5087 195.721 30.9133V45.5337H195.694Z" fill="#2C9012"/>
<path d="M205.661 28.0809H212.316C212.72 28.0809 213.07 28.1618 213.42 28.2967C213.77 28.4586 214.067 28.6474 214.309 28.9171C214.552 29.1869 214.767 29.4836 214.929 29.8073C215.09 30.158 215.144 30.5087 215.144 30.9133C215.144 31.2909 215.064 31.6416 214.929 31.9923C214.767 32.343 214.579 32.6397 214.309 32.8825C214.067 33.1252 213.743 33.341 213.42 33.5029C213.07 33.6647 212.693 33.7187 212.316 33.7187H205.661V38.2235C205.661 38.8709 205.796 39.4913 206.039 40.0578C206.281 40.6243 206.631 41.1098 207.062 41.5414C207.493 41.973 207.978 42.2967 208.544 42.5395C209.11 42.7823 209.729 42.9171 210.376 42.9171C210.969 42.9171 211.48 42.8362 211.992 42.6744C212.477 42.5125 212.935 42.2697 213.312 41.9191C213.501 41.7572 213.69 41.5954 213.878 41.4605C214.067 41.3256 214.282 41.2177 214.498 41.1368C214.929 40.9749 215.387 40.921 215.845 41.0019C216.303 41.0828 216.761 41.2986 217.165 41.6763C217.461 41.973 217.677 42.2967 217.838 42.6744C217.973 43.052 218.027 43.4566 218 43.8613C217.973 44.2659 217.865 44.6705 217.704 45.0482C217.542 45.4258 217.3 45.7765 216.976 46.0732C216.114 46.9094 215.117 47.5568 213.986 47.9884C212.854 48.42 211.669 48.6358 210.376 48.6358C208.948 48.6358 207.601 48.3661 206.335 47.8266C205.069 47.2871 203.991 46.5318 203.048 45.6146C202.105 44.6705 201.378 43.5915 200.839 42.3237C200.3 41.0559 200.031 39.7071 200.031 38.2774V25.1137C200.031 24.709 200.112 24.3584 200.246 24.0077C200.408 23.657 200.597 23.3603 200.866 23.0905C201.135 22.8208 201.432 22.632 201.755 22.4701C202.105 22.3083 202.456 22.2543 202.86 22.2543C203.264 22.2543 203.614 22.3352 203.964 22.4701C204.314 22.605 204.611 22.8208 204.853 23.0905C205.096 23.3603 205.311 23.657 205.446 24.0077C205.581 24.3584 205.661 24.736 205.661 25.1406V28.0809Z" fill="#2C9012"/>
<path d="M54.958 70H14.9518C6.68117 70 0 63.3102 0 55.0289V14.9711C0 6.68979 6.68117 0 14.9518 0H54.958C63.2017 0 69.9098 6.68979 69.9098 14.9711V55.0289C69.9098 63.3102 63.2286 70 54.958 70Z" fill="white"/>
<path d="M40.1678 14.9711C40.1678 17.8574 37.824 20.2042 34.9414 20.2042C32.0588 20.2042 29.715 17.8574 29.715 14.9711C29.715 14.9171 29.715 14.8362 29.715 14.7823C29.715 14.7283 29.715 14.6744 29.715 14.6204C29.715 14.5934 29.715 14.5934 29.715 14.5665C29.715 14.4586 29.7419 14.3507 29.7419 14.2428C29.7419 14.2158 29.7419 14.2158 29.7419 14.1888C30.3346 10.1156 34.9144 4.12717 34.9144 4.12717C34.9144 4.12717 39.4943 10.1156 40.0869 14.1888C40.0869 14.2158 40.0869 14.2158 40.0869 14.2428C40.1139 14.3507 40.1139 14.4586 40.1139 14.5665C40.1139 14.5934 40.1139 14.5934 40.1139 14.6204C40.1139 14.6744 40.1139 14.7283 40.1139 14.7823C40.1678 14.8632 40.1678 14.9171 40.1678 14.9711Z" fill="#2C9012"/>
<path d="M48.9504 21.0944C47.8458 22.551 45.7715 22.8478 44.3167 21.7418C42.8619 20.6358 42.5656 18.5588 43.6701 17.1021C43.6971 17.0751 43.724 17.0482 43.7509 16.9942C43.7779 16.9672 43.8048 16.9403 43.8048 16.9133L43.8318 16.8863C43.8856 16.8324 43.9395 16.7784 43.9665 16.7245L43.9934 16.6975C45.8253 14.8632 50.459 13.5684 50.459 13.5684C50.459 13.5684 50.5129 18.3699 49.2467 20.6628C49.2467 20.6628 49.2467 20.6898 49.2198 20.6898C49.1929 20.7437 49.139 20.8247 49.112 20.8786C49.112 20.8786 49.112 20.9056 49.0851 20.9056C49.0582 20.9326 49.0582 20.9595 49.0312 20.9865C49.0043 21.0135 48.9773 21.0674 48.9504 21.0944Z" fill="#2C9012"/>
<path d="M20.9595 21.0944C22.064 22.551 24.1384 22.8478 25.5932 21.7418C27.048 20.6358 27.3443 18.5588 26.2398 17.1021C26.2128 17.0751 26.1859 17.0482 26.1589 16.9942C26.132 16.9672 26.1051 16.9403 26.1051 16.9133L26.0781 16.8863C26.0242 16.8324 25.9704 16.7784 25.9434 16.7245L25.9165 16.6975C24.0845 14.8632 19.4508 13.5684 19.4508 13.5684C19.4508 13.5684 19.397 18.3699 20.6631 20.6628C20.6631 20.6628 20.6631 20.6898 20.6901 20.6898C20.717 20.7437 20.7709 20.8247 20.7978 20.8786C20.7978 20.8786 20.7978 20.9056 20.8248 20.9056C20.8517 20.9326 20.8517 20.9595 20.8787 20.9865C20.9056 21.0135 20.9325 21.0674 20.9595 21.0944Z" fill="#2C9012"/>
<path d="M34.9684 65.8729C34.3488 65.8729 33.7561 65.5761 33.379 65.0906C32.8132 64.3623 19.5048 47.0713 19.5048 31.0482C19.5048 29.9422 20.3938 29.0251 21.5253 29.0251C22.6568 29.0251 23.5458 29.9152 23.5458 31.0482C23.5458 42.5395 31.5201 55.3526 34.9954 60.3969C38.4706 55.3526 46.4449 42.5125 46.4449 31.0482C46.4449 29.9422 47.334 29.0251 48.4655 29.0251C49.5969 29.0251 50.486 29.9152 50.486 31.0482C50.486 47.0443 37.1775 64.3623 36.6118 65.0906C36.1538 65.6031 35.5611 65.8729 34.9684 65.8729Z" fill="#FFA837"/>
<path d="M42.8888 52.2774H33.9446C32.8401 52.2774 31.9241 51.3873 31.9241 50.2543C31.9241 49.1483 32.8132 48.2312 33.9446 48.2312H42.8888C43.9933 48.2312 44.9093 49.1214 44.9093 50.2543C44.9093 51.3603 43.9933 52.2774 42.8888 52.2774Z" fill="#FFA837"/>
<path d="M46.0946 38.79H41.1646C40.06 38.79 39.144 37.8998 39.144 36.7669C39.144 35.6609 40.0331 34.7437 41.1646 34.7437H46.0946C47.1992 34.7437 48.1151 35.6339 48.1151 36.7669C48.1151 37.8998 47.2261 38.79 46.0946 38.79Z" fill="#FFA837"/>
<path d="M33.7561 44.212H23.4111C22.3065 44.212 21.3906 43.3218 21.3906 42.1888C21.3906 41.0829 22.2796 40.1657 23.4111 40.1657H33.7292C34.8337 40.1657 35.7497 41.0559 35.7497 42.1888C35.7497 43.2948 34.8607 44.212 33.7561 44.212Z" fill="#FFA837"/>
<path d="M34.9684 27.0559C38.7476 27.0559 41.8112 26.1984 41.8112 25.1407C41.8112 24.0829 38.7476 23.2254 34.9684 23.2254C31.1892 23.2254 28.1256 24.0829 28.1256 25.1407C28.1256 26.1984 31.1892 27.0559 34.9684 27.0559Z" fill="#FFA837"/>
</g>
<defs>
<clipPath id="clip0">
<rect width="218" height="70" fill="white"/>
</clipPath>
</defs>
</svg>
