<svg width="162" height="436" viewBox="0 0 162 436" fill="none" xmlns="http://www.w3.org/2000/svg">
<g clip-path="url(#clip0)">
<path d="M53.7093 374.95C48.375 357.049 49.5302 336.622 51.5122 317.327C53.4941 298.049 56.2009 278.377 53.6527 259.229C50.7307 237.311 41.274 218.606 34.9431 198.262C28.6122 177.918 25.8601 152.131 35.498 134.721C51.7727 105.311 90.347 120.475 104.674 88.9996C113.02 70.6553 109.362 42.5405 121.197 28.8028C129.159 19.5569 140.519 21.3766 150.644 19.3766C160.757 17.3766 172.32 5.85204 169.591 -8.39388C167.088 -21.5086 155.185 -24.0496 145.785 -24.0332C89.4863 -23.9185 33.1877 -23.8037 -23.111 -23.6726C-31.2426 84.3602 -33.8135 193.262 -30.7783 301.836C-29.9515 331.278 -28.4905 361.918 -18.3883 387.508C-8.29733 413.081 10.265 431.245 30.4016 435.245C41.2853 437.409 65.0485 435.77 71.0963 418.409C76.5098 402.901 58.0696 389.59 53.7093 374.95Z" fill="#551BBA" fill-opacity="0.15"/>
</g>
<defs>
<clipPath id="clip0">
<rect width="202" height="460" fill="white" transform="matrix(1 0 0 -1 -39.9999 436)"/>
</clipPath>
</defs>
</svg>
